<svg width="326" height="263" viewBox="0 0 326 263" fill="none" xmlns="http://www.w3.org/2000/svg">
<g filter="url(#filter0_d_10_485)">
<rect x="32" y="28" width="262" height="199" rx="12" fill="white"/>
</g>
<g clip-path="url(#clip0_10_485)">
<path d="M234.646 127.505C234.646 168.62 201.398 201.902 160.442 201.902C119.486 201.902 86.2377 168.62 86.2377 127.505C86.2377 86.3898 119.486 53.1071 160.442 53.1071C201.398 53.1071 234.646 86.3898 234.646 127.505Z" stroke="#0A2640" stroke-width="24.971"/>
<mask id="mask0_10_485" style="mask-type:alpha" maskUnits="userSpaceOnUse" x="21" y="9" width="137" height="226">
<path d="M157.675 119.494L123.86 9.19554L21.4927 139.212L75.9043 234.106L157.675 119.494Z" fill="#C4C4C4"/>
</mask>
<g mask="url(#mask0_10_485)">
<path d="M234.646 127.505C234.646 168.619 201.398 201.902 160.442 201.902C119.487 201.902 86.2381 168.619 86.2381 127.505C86.2381 86.3897 119.487 53.107 160.442 53.107C201.398 53.107 234.646 86.3897 234.646 127.505Z" stroke="#0DBBFC" stroke-width="24.971"/>
</g>
<mask id="mask1_10_485" style="mask-type:alpha" maskUnits="userSpaceOnUse" x="112" y="0" width="169" height="157">
<path d="M169.122 129.159L280.986 156.55L221.871 1.87228L112.68 0.0944453L169.122 129.159Z" fill="#C4C4C4"/>
</mask>
<g mask="url(#mask1_10_485)">
<path d="M122.406 191.346C87.1813 170.305 75.6209 124.649 96.5897 89.3708C117.559 54.0922 163.113 42.5545 198.338 63.5961C233.562 84.6376 245.123 130.293 224.154 165.572C203.185 200.85 157.631 212.388 122.406 191.346Z" stroke="#69E6A6" stroke-width="24.971"/>
</g>
</g>
<defs>
<filter id="filter0_d_10_485" x="0" y="0" width="326" height="263" filterUnits="userSpaceOnUse" color-interpolation-filters="sRGB">
<feFlood flood-opacity="0" result="BackgroundImageFix"/>
<feColorMatrix in="SourceAlpha" type="matrix" values="0 0 0 0 0 0 0 0 0 0 0 0 0 0 0 0 0 0 127 0" result="hardAlpha"/>
<feOffset dy="4"/>
<feGaussianBlur stdDeviation="16"/>
<feComposite in2="hardAlpha" operator="out"/>
<feColorMatrix type="matrix" values="0 0 0 0 0 0 0 0 0 0 0 0 0 0 0 0 0 0 0.12 0"/>
<feBlend mode="normal" in2="BackgroundImageFix" result="effect1_dropShadow_10_485"/>
<feBlend mode="normal" in="SourceGraphic" in2="effect1_dropShadow_10_485" result="shape"/>
</filter>
<clipPath id="clip0_10_485">
<rect width="173.469" height="173.469" fill="white" transform="translate(73.5867 40.7653)"/>
</clipPath>
</defs>
</svg>
