<svg width="209" height="13" viewBox="0 0 209 13" fill="none" xmlns="http://www.w3.org/2000/svg">
<path d="M3 6.18182C3 5.56061 3.15152 4.99432 3.45455 4.48295C3.75758 3.97159 4.16477 3.56439 4.67614 3.26136C5.1875 2.95833 5.75379 2.80682 6.375 2.80682C6.91288 2.80682 7.40909 2.92235 7.86364 3.15341C8.32197 3.38447 8.70076 3.70076 9 4.10227C9.29924 4.5 9.48485 4.95076 9.55682 5.45455H8.18182C8.10606 5.06439 7.89583 4.74621 7.55114 4.5C7.20644 4.25 6.81439 4.125 6.375 4.125C5.99621 4.125 5.65152 4.2178 5.34091 4.40341C5.0303 4.58902 4.7822 4.83712 4.59659 5.14773C4.41098 5.45833 4.31818 5.80303 4.31818 6.18182C4.31818 6.56061 4.41098 6.9053 4.59659 7.21591C4.7822 7.52652 5.0303 7.77462 5.34091 7.96023C5.65152 8.14583 5.99621 8.23864 6.375 8.23864C6.81439 8.23864 7.18561 8.11553 7.48864 7.86932C7.79545 7.61932 7.98864 7.29924 8.06818 6.90909H9.44318C9.37121 7.41288 9.19508 7.86553 8.91477 8.26705C8.63447 8.66477 8.27462 8.97917 7.83523 9.21023C7.39962 9.44129 6.91288 9.55682 6.375 9.55682C5.75379 9.55682 5.1875 9.4053 4.67614 9.10227C4.16477 8.79924 3.75758 8.39205 3.45455 7.88068C3.15152 7.36932 3 6.80303 3 6.18182ZM6.31818 12.1818C5.49242 12.1818 4.71591 12.0265 3.98864 11.7159C3.26515 11.4053 2.62689 10.9754 2.07386 10.4261C1.52462 9.87311 1.0928 9.23485 0.778409 8.51136C0.467803 7.78788 0.314394 7.01136 0.318182 6.18182C0.32197 5.35227 0.479167 4.57576 0.789773 3.85227C1.10417 3.12879 1.53598 2.49242 2.08523 1.94318C2.63447 1.39015 3.27083 0.958333 3.99432 0.647727C4.7178 0.337121 5.49242 0.181818 6.31818 0.181818C7.14773 0.181818 7.92424 0.337121 8.64773 0.647727C9.375 0.958333 10.0114 1.39015 10.5568 1.94318C11.1061 2.49242 11.536 3.12879 11.8466 3.85227C12.1572 4.57576 12.3144 5.35227 12.3182 6.18182C12.322 7.01136 12.1686 7.78788 11.858 8.51136C11.5473 9.23485 11.1174 9.87311 10.5682 10.4261C10.0189 10.9754 9.38068 11.4053 8.65341 11.7159C7.92614 12.0265 7.14773 12.1818 6.31818 12.1818ZM6.31818 10.8636C6.96591 10.8636 7.57386 10.7424 8.14205 10.5C8.71023 10.2576 9.20833 9.92235 9.63636 9.49432C10.0644 9.06629 10.3996 8.57008 10.642 8.00568C10.8845 7.4375 11.0038 6.83144 11 6.1875C10.9962 5.53977 10.8731 4.93182 10.6307 4.36364C10.3883 3.79545 10.053 3.29735 9.625 2.86932C9.19697 2.44129 8.70076 2.10606 8.13636 1.86364C7.57197 1.62121 6.96591 1.5 6.31818 1.5C5.67424 1.5 5.07008 1.62121 4.50568 1.86364C3.94129 2.10606 3.44508 2.44318 3.01705 2.875C2.58902 3.30303 2.25189 3.80114 2.00568 4.36932C1.76326 4.93371 1.64015 5.53977 1.63636 6.1875C1.63258 6.82765 1.75189 7.43182 1.99432 8C2.23674 8.56439 2.57197 9.06061 3 9.48864C3.43182 9.91667 3.92992 10.2538 4.49432 10.5C5.0625 10.7424 5.67045 10.8636 6.31818 10.8636ZM14.544 12V11.233L17.4247 8.07955C17.7628 7.71023 18.0412 7.3892 18.2599 7.11648C18.4787 6.84091 18.6406 6.58239 18.7457 6.34091C18.8537 6.09659 18.9077 5.84091 18.9077 5.57386C18.9077 5.26705 18.8338 5.00142 18.6861 4.77699C18.5412 4.55256 18.3423 4.37926 18.0895 4.2571C17.8366 4.13494 17.5526 4.07386 17.2372 4.07386C16.902 4.07386 16.6094 4.14347 16.3594 4.28267C16.1122 4.41903 15.9205 4.6108 15.7841 4.85795C15.6506 5.10511 15.5838 5.39489 15.5838 5.72727H14.5781C14.5781 5.21591 14.696 4.76705 14.9318 4.38068C15.1676 3.99432 15.4886 3.69318 15.8949 3.47727C16.304 3.26136 16.7628 3.15341 17.2713 3.15341C17.7827 3.15341 18.2358 3.26136 18.6307 3.47727C19.0256 3.69318 19.3352 3.98437 19.5597 4.35085C19.7841 4.71733 19.8963 5.125 19.8963 5.57386C19.8963 5.89489 19.8381 6.20881 19.7216 6.51562C19.608 6.8196 19.4091 7.15909 19.125 7.53409C18.8438 7.90625 18.4531 8.3608 17.9531 8.89773L15.9929 10.9943V11.0625H20.0497V12H14.544ZM24.6562 12.1193C24.0142 12.1193 23.4673 11.9446 23.0156 11.5952C22.5639 11.2429 22.2188 10.733 21.9801 10.0653C21.7415 9.39489 21.6222 8.58523 21.6222 7.63636C21.6222 6.69318 21.7415 5.88778 21.9801 5.22017C22.2216 4.54972 22.5682 4.03835 23.0199 3.68608C23.4744 3.33097 24.0199 3.15341 24.6562 3.15341C25.2926 3.15341 25.8366 3.33097 26.2884 3.68608C26.7429 4.03835 27.0895 4.54972 27.3281 5.22017C27.5696 5.88778 27.6903 6.69318 27.6903 7.63636C27.6903 8.58523 27.571 9.39489 27.3324 10.0653C27.0938 10.733 26.7486 11.2429 26.2969 11.5952C25.8452 11.9446 25.2983 12.1193 24.6562 12.1193ZM24.6562 11.1818C25.2926 11.1818 25.7869 10.875 26.1392 10.2614C26.4915 9.64773 26.6676 8.77273 26.6676 7.63636C26.6676 6.88068 26.5866 6.23722 26.4247 5.70597C26.2656 5.17472 26.0355 4.76989 25.7344 4.49148C25.4361 4.21307 25.0767 4.07386 24.6562 4.07386C24.0256 4.07386 23.5327 4.38494 23.1776 5.0071C22.8224 5.62642 22.6449 6.50284 22.6449 7.63636C22.6449 8.39205 22.7244 9.03409 22.8835 9.5625C23.0426 10.0909 23.2713 10.4929 23.5696 10.7685C23.8707 11.044 24.233 11.1818 24.6562 11.1818ZM29.3097 12V11.233L32.1903 8.07955C32.5284 7.71023 32.8068 7.3892 33.0256 7.11648C33.2443 6.84091 33.4063 6.58239 33.5114 6.34091C33.6193 6.09659 33.6733 5.84091 33.6733 5.57386C33.6733 5.26705 33.5994 5.00142 33.4517 4.77699C33.3068 4.55256 33.108 4.37926 32.8551 4.2571C32.6023 4.13494 32.3182 4.07386 32.0028 4.07386C31.6676 4.07386 31.375 4.14347 31.125 4.28267C30.8778 4.41903 30.6861 4.6108 30.5497 4.85795C30.4162 5.10511 30.3494 5.39489 30.3494 5.72727H29.3438C29.3438 5.21591 29.4616 4.76705 29.6974 4.38068C29.9332 3.99432 30.2543 3.69318 30.6605 3.47727C31.0696 3.26136 31.5284 3.15341 32.0369 3.15341C32.5483 3.15341 33.0014 3.26136 33.3963 3.47727C33.7912 3.69318 34.1009 3.98437 34.3253 4.35085C34.5497 4.71733 34.6619 5.125 34.6619 5.57386C34.6619 5.89489 34.6037 6.20881 34.4872 6.51562C34.3736 6.8196 34.1747 7.15909 33.8906 7.53409C33.6094 7.90625 33.2188 8.3608 32.7188 8.89773L30.7585 10.9943V11.0625H34.8153V12H29.3097ZM36.5753 12V11.233L39.456 8.07955C39.794 7.71023 40.0724 7.3892 40.2912 7.11648C40.5099 6.84091 40.6719 6.58239 40.777 6.34091C40.8849 6.09659 40.9389 5.84091 40.9389 5.57386C40.9389 5.26705 40.8651 5.00142 40.7173 4.77699C40.5724 4.55256 40.3736 4.37926 40.1207 4.2571C39.8679 4.13494 39.5838 4.07386 39.2685 4.07386C38.9332 4.07386 38.6406 4.14347 38.3906 4.28267C38.1435 4.41903 37.9517 4.6108 37.8153 4.85795C37.6818 5.10511 37.6151 5.39489 37.6151 5.72727H36.6094C36.6094 5.21591 36.7273 4.76705 36.9631 4.38068C37.1989 3.99432 37.5199 3.69318 37.9261 3.47727C38.3352 3.26136 38.794 3.15341 39.3026 3.15341C39.8139 3.15341 40.267 3.26136 40.6619 3.47727C41.0568 3.69318 41.3665 3.98437 41.5909 4.35085C41.8153 4.71733 41.9276 5.125 41.9276 5.57386C41.9276 5.89489 41.8693 6.20881 41.7528 6.51562C41.6392 6.8196 41.4403 7.15909 41.1562 7.53409C40.875 7.90625 40.4844 8.3608 39.9844 8.89773L38.0241 10.9943V11.0625H42.081V12H36.5753ZM47.7273 12H46.6193L49.8239 3.27273H50.9148L54.1193 12H53.0114L50.4034 4.65341H50.3352L47.7273 12ZM48.1364 8.59091H52.6023V9.52841H48.1364V8.59091ZM56.348 3.27273V12H55.3423V3.27273H56.348ZM58.19 12V5.45455H59.1957V12H58.19ZM58.7013 4.36364C58.5053 4.36364 58.3363 4.29688 58.1942 4.16335C58.055 4.02983 57.9854 3.86932 57.9854 3.68182C57.9854 3.49432 58.055 3.33381 58.1942 3.20028C58.3363 3.06676 58.5053 3 58.7013 3C58.8974 3 59.065 3.06676 59.2042 3.20028C59.3462 3.33381 59.4173 3.49432 59.4173 3.68182C59.4173 3.86932 59.3462 4.02983 59.2042 4.16335C59.065 4.29688 58.8974 4.36364 58.7013 4.36364ZM62.9638 12.1534C62.549 12.1534 62.1726 12.0753 61.8345 11.919C61.4964 11.7599 61.228 11.5312 61.0291 11.233C60.8303 10.9318 60.7308 10.5682 60.7308 10.142C60.7308 9.76705 60.8047 9.46307 60.9524 9.23011C61.1001 8.99432 61.2976 8.80966 61.5447 8.67614C61.7919 8.54261 62.0646 8.44318 62.3629 8.37784C62.6641 8.30966 62.9666 8.25568 63.2706 8.21591C63.6683 8.16477 63.9908 8.12642 64.2379 8.10085C64.4879 8.07244 64.6697 8.02557 64.7834 7.96023C64.8999 7.89489 64.9581 7.78125 64.9581 7.61932V7.58523C64.9581 7.16477 64.843 6.83807 64.6129 6.60511C64.3857 6.37216 64.0405 6.25568 63.5774 6.25568C63.0973 6.25568 62.7209 6.3608 62.4482 6.57102C62.1754 6.78125 61.9837 7.00568 61.8729 7.24432L60.9183 6.90341C61.0888 6.50568 61.3161 6.19602 61.6001 5.97443C61.8871 5.75 62.1996 5.59375 62.5376 5.50568C62.8786 5.41477 63.2138 5.36932 63.5433 5.36932C63.7536 5.36932 63.995 5.39489 64.2678 5.44602C64.5433 5.49432 64.8089 5.59517 65.0646 5.74858C65.3232 5.90199 65.5376 6.13352 65.7081 6.44318C65.8786 6.75284 65.9638 7.16761 65.9638 7.6875V12H64.9581V11.1136H64.907C64.8388 11.2557 64.7251 11.4077 64.5661 11.5696C64.407 11.7315 64.1953 11.8693 63.9311 11.983C63.6669 12.0966 63.3445 12.1534 62.9638 12.1534ZM63.1172 11.25C63.5149 11.25 63.8501 11.1719 64.1229 11.0156C64.3984 10.8594 64.6058 10.6577 64.745 10.4105C64.8871 10.1634 64.9581 9.90341 64.9581 9.63068V8.71023C64.9155 8.76136 64.8217 8.80824 64.6768 8.85085C64.5348 8.89062 64.37 8.92614 64.1825 8.95739C63.9979 8.9858 63.8175 9.01136 63.6413 9.03409C63.468 9.05398 63.3274 9.07102 63.2195 9.08523C62.9581 9.11932 62.7138 9.17472 62.4865 9.25142C62.2621 9.32528 62.0803 9.4375 61.9411 9.58807C61.8047 9.7358 61.7365 9.9375 61.7365 10.1932C61.7365 10.5426 61.8658 10.8068 62.1243 10.9858C62.3857 11.1619 62.7166 11.25 63.1172 11.25ZM68.805 8.0625V12H67.7994V5.45455H68.771V6.47727H68.8562C69.0096 6.14489 69.2425 5.87784 69.555 5.67614C69.8675 5.47159 70.271 5.36932 70.7653 5.36932C71.2085 5.36932 71.5962 5.46023 71.9286 5.64205C72.261 5.82102 72.5195 6.09375 72.7042 6.46023C72.8888 6.82386 72.9812 7.28409 72.9812 7.84091V12H71.9755V7.90909C71.9755 7.39489 71.842 6.99432 71.5749 6.70739C71.3079 6.41761 70.9414 6.27273 70.4755 6.27273C70.1545 6.27273 69.8675 6.34233 69.6147 6.48153C69.3647 6.62074 69.1673 6.82386 69.0224 7.09091C68.8775 7.35795 68.805 7.68182 68.805 8.0625ZM74.6314 12V11.233L78.3473 6.46023V6.39205H74.7507V5.45455H79.6428V6.25568L76.0291 10.9943V11.0625H79.7621V12H74.6314ZM83.2372 12.1534C82.8224 12.1534 82.446 12.0753 82.108 11.919C81.7699 11.7599 81.5014 11.5312 81.3026 11.233C81.1037 10.9318 81.0043 10.5682 81.0043 10.142C81.0043 9.76705 81.0781 9.46307 81.2259 9.23011C81.3736 8.99432 81.571 8.80966 81.8182 8.67614C82.0653 8.54261 82.3381 8.44318 82.6364 8.37784C82.9375 8.30966 83.2401 8.25568 83.544 8.21591C83.9418 8.16477 84.2642 8.12642 84.5114 8.10085C84.7614 8.07244 84.9432 8.02557 85.0568 7.96023C85.1733 7.89489 85.2315 7.78125 85.2315 7.61932V7.58523C85.2315 7.16477 85.1165 6.83807 84.8864 6.60511C84.6591 6.37216 84.3139 6.25568 83.8509 6.25568C83.3707 6.25568 82.9943 6.3608 82.7216 6.57102C82.4489 6.78125 82.2571 7.00568 82.1463 7.24432L81.1918 6.90341C81.3622 6.50568 81.5895 6.19602 81.8736 5.97443C82.1605 5.75 82.473 5.59375 82.8111 5.50568C83.152 5.41477 83.4872 5.36932 83.8168 5.36932C84.027 5.36932 84.2685 5.39489 84.5412 5.44602C84.8168 5.49432 85.0824 5.59517 85.3381 5.74858C85.5966 5.90199 85.8111 6.13352 85.9815 6.44318C86.152 6.75284 86.2372 7.16761 86.2372 7.6875V12H85.2315V11.1136H85.1804C85.1122 11.2557 84.9986 11.4077 84.8395 11.5696C84.6804 11.7315 84.4688 11.8693 84.2045 11.983C83.9403 12.0966 83.6179 12.1534 83.2372 12.1534ZM83.3906 11.25C83.7884 11.25 84.1236 11.1719 84.3963 11.0156C84.6719 10.8594 84.8793 10.6577 85.0185 10.4105C85.1605 10.1634 85.2315 9.90341 85.2315 9.63068V8.71023C85.1889 8.76136 85.0952 8.80824 84.9503 8.85085C84.8082 8.89062 84.6435 8.92614 84.456 8.95739C84.2713 8.9858 84.0909 9.01136 83.9148 9.03409C83.7415 9.05398 83.6009 9.07102 83.4929 9.08523C83.2315 9.11932 82.9872 9.17472 82.7599 9.25142C82.5355 9.32528 82.3537 9.4375 82.2145 9.58807C82.0781 9.7358 82.0099 9.9375 82.0099 10.1932C82.0099 10.5426 82.1392 10.8068 82.3977 10.9858C82.6591 11.1619 82.9901 11.25 83.3906 11.25ZM98.6069 6H97.5501C97.4876 5.69602 97.3782 5.42898 97.2219 5.19886C97.0685 4.96875 96.881 4.77557 96.6594 4.61932C96.4407 4.46023 96.1978 4.34091 95.9308 4.26136C95.6637 4.18182 95.3853 4.14205 95.0955 4.14205C94.5671 4.14205 94.0884 4.27557 93.6594 4.54261C93.2333 4.80966 92.8938 5.20312 92.641 5.72301C92.391 6.2429 92.266 6.88068 92.266 7.63636C92.266 8.39205 92.391 9.02983 92.641 9.54972C92.8938 10.0696 93.2333 10.4631 93.6594 10.7301C94.0884 10.9972 94.5671 11.1307 95.0955 11.1307C95.3853 11.1307 95.6637 11.0909 95.9308 11.0114C96.1978 10.9318 96.4407 10.8139 96.6594 10.6577C96.881 10.4986 97.0685 10.304 97.2219 10.0739C97.3782 9.84091 97.4876 9.57386 97.5501 9.27273H98.6069C98.5273 9.71875 98.3825 10.1179 98.1722 10.4702C97.962 10.8224 97.7006 11.1222 97.3881 11.3693C97.0756 11.6136 96.7248 11.7997 96.3356 11.9276C95.9492 12.0554 95.5359 12.1193 95.0955 12.1193C94.3512 12.1193 93.6893 11.9375 93.1097 11.5739C92.5302 11.2102 92.0742 10.6932 91.7418 10.0227C91.4094 9.35227 91.2433 8.55682 91.2433 7.63636C91.2433 6.71591 91.4094 5.92045 91.7418 5.25C92.0742 4.57955 92.5302 4.0625 93.1097 3.69886C93.6893 3.33523 94.3512 3.15341 95.0955 3.15341C95.5359 3.15341 95.9492 3.21733 96.3356 3.34517C96.7248 3.47301 97.0756 3.66051 97.3881 3.90767C97.7006 4.15199 97.962 4.45028 98.1722 4.80256C98.3825 5.15199 98.5273 5.55114 98.6069 6ZM100.673 12H99.5646L102.769 3.27273H103.86L107.065 12H105.957L103.349 4.65341H103.281L100.673 12ZM101.082 8.59091H105.548V9.52841H101.082V8.59091ZM115.377 7.63636C115.377 8.55682 115.211 9.35227 114.879 10.0227C114.547 10.6932 114.091 11.2102 113.511 11.5739C112.931 11.9375 112.27 12.1193 111.525 12.1193C110.781 12.1193 110.119 11.9375 109.539 11.5739C108.96 11.2102 108.504 10.6932 108.172 10.0227C107.839 9.35227 107.673 8.55682 107.673 7.63636C107.673 6.71591 107.839 5.92045 108.172 5.25C108.504 4.57955 108.96 4.0625 109.539 3.69886C110.119 3.33523 110.781 3.15341 111.525 3.15341C112.27 3.15341 112.931 3.33523 113.511 3.69886C114.091 4.0625 114.547 4.57955 114.879 5.25C115.211 5.92045 115.377 6.71591 115.377 7.63636ZM114.355 7.63636C114.355 6.88068 114.228 6.2429 113.975 5.72301C113.725 5.20312 113.386 4.80966 112.957 4.54261C112.531 4.27557 112.054 4.14205 111.525 4.14205C110.997 4.14205 110.518 4.27557 110.089 4.54261C109.663 4.80966 109.324 5.20312 109.071 5.72301C108.821 6.2429 108.696 6.88068 108.696 7.63636C108.696 8.39205 108.821 9.02983 109.071 9.54972C109.324 10.0696 109.663 10.4631 110.089 10.7301C110.518 10.9972 110.997 11.1307 111.525 11.1307C112.054 11.1307 112.531 10.9972 112.957 10.7301C113.386 10.4631 113.725 10.0696 113.975 9.54972C114.228 9.02983 114.355 8.39205 114.355 7.63636ZM117.154 12V3.27273H120.206C120.814 3.27273 121.315 3.37784 121.71 3.58807C122.105 3.79545 122.399 4.07528 122.592 4.42756C122.785 4.77699 122.882 5.16477 122.882 5.59091C122.882 5.96591 122.815 6.27557 122.681 6.51989C122.551 6.7642 122.377 6.95739 122.162 7.09943C121.949 7.24148 121.717 7.34659 121.467 7.41477V7.5C121.734 7.51705 122.002 7.6108 122.272 7.78125C122.542 7.9517 122.768 8.19602 122.95 8.5142C123.132 8.83239 123.223 9.22159 123.223 9.68182C123.223 10.1193 123.123 10.5128 122.924 10.8622C122.725 11.2116 122.412 11.4886 121.983 11.6932C121.554 11.8977 120.995 12 120.308 12H117.154ZM118.211 11.0625H120.308C120.998 11.0625 121.488 10.929 121.778 10.6619C122.071 10.392 122.217 10.0653 122.217 9.68182C122.217 9.38636 122.142 9.11364 121.991 8.86364C121.841 8.6108 121.626 8.40909 121.348 8.25852C121.069 8.10511 120.74 8.02841 120.359 8.02841H118.211V11.0625ZM118.211 7.10795H120.172C120.49 7.10795 120.777 7.04545 121.032 6.92045C121.291 6.79545 121.495 6.61932 121.646 6.39205C121.799 6.16477 121.876 5.89773 121.876 5.59091C121.876 5.20739 121.743 4.8821 121.475 4.61506C121.208 4.34517 120.785 4.21023 120.206 4.21023H118.211V7.10795ZM125.317 12H124.209L127.414 3.27273H128.505L131.709 12H130.601L127.993 4.65341H127.925L125.317 12ZM125.726 8.59091H130.192V9.52841H125.726V8.59091ZM140.057 7.16761V8.10511H136.239V7.16761H140.057ZM152.361 6H151.304C151.241 5.69602 151.132 5.42898 150.976 5.19886C150.822 4.96875 150.635 4.77557 150.413 4.61932C150.195 4.46023 149.952 4.34091 149.685 4.26136C149.418 4.18182 149.139 4.14205 148.849 4.14205C148.321 4.14205 147.842 4.27557 147.413 4.54261C146.987 4.80966 146.648 5.20312 146.395 5.72301C146.145 6.2429 146.02 6.88068 146.02 7.63636C146.02 8.39205 146.145 9.02983 146.395 9.54972C146.648 10.0696 146.987 10.4631 147.413 10.7301C147.842 10.9972 148.321 11.1307 148.849 11.1307C149.139 11.1307 149.418 11.0909 149.685 11.0114C149.952 10.9318 150.195 10.8139 150.413 10.6577C150.635 10.4986 150.822 10.304 150.976 10.0739C151.132 9.84091 151.241 9.57386 151.304 9.27273H152.361C152.281 9.71875 152.136 10.1179 151.926 10.4702C151.716 10.8224 151.455 11.1222 151.142 11.3693C150.83 11.6136 150.479 11.7997 150.089 11.9276C149.703 12.0554 149.29 12.1193 148.849 12.1193C148.105 12.1193 147.443 11.9375 146.864 11.5739C146.284 11.2102 145.828 10.6932 145.496 10.0227C145.163 9.35227 144.997 8.55682 144.997 7.63636C144.997 6.71591 145.163 5.92045 145.496 5.25C145.828 4.57955 146.284 4.0625 146.864 3.69886C147.443 3.33523 148.105 3.15341 148.849 3.15341C149.29 3.15341 149.703 3.21733 150.089 3.34517C150.479 3.47301 150.83 3.66051 151.142 3.90767C151.455 4.15199 151.716 4.45028 151.926 4.80256C152.136 5.15199 152.281 5.55114 152.361 6ZM154.426 12H153.319L156.523 3.27273H157.614L160.819 12H159.711L157.103 4.65341H157.034L154.426 12ZM154.836 8.59091H159.301V9.52841H154.836V8.59091ZM169.131 7.63636C169.131 8.55682 168.965 9.35227 168.633 10.0227C168.3 10.6932 167.844 11.2102 167.265 11.5739C166.685 11.9375 166.023 12.1193 165.279 12.1193C164.535 12.1193 163.873 11.9375 163.293 11.5739C162.714 11.2102 162.258 10.6932 161.925 10.0227C161.593 9.35227 161.427 8.55682 161.427 7.63636C161.427 6.71591 161.593 5.92045 161.925 5.25C162.258 4.57955 162.714 4.0625 163.293 3.69886C163.873 3.33523 164.535 3.15341 165.279 3.15341C166.023 3.15341 166.685 3.33523 167.265 3.69886C167.844 4.0625 168.3 4.57955 168.633 5.25C168.965 5.92045 169.131 6.71591 169.131 7.63636ZM168.109 7.63636C168.109 6.88068 167.982 6.2429 167.729 5.72301C167.479 5.20312 167.14 4.80966 166.711 4.54261C166.285 4.27557 165.808 4.14205 165.279 4.14205C164.751 4.14205 164.272 4.27557 163.843 4.54261C163.417 4.80966 163.077 5.20312 162.825 5.72301C162.575 6.2429 162.45 6.88068 162.45 7.63636C162.45 8.39205 162.575 9.02983 162.825 9.54972C163.077 10.0696 163.417 10.4631 163.843 10.7301C164.272 10.9972 164.751 11.1307 165.279 11.1307C165.808 11.1307 166.285 10.9972 166.711 10.7301C167.14 10.4631 167.479 10.0696 167.729 9.54972C167.982 9.02983 168.109 8.39205 168.109 7.63636ZM170.908 12V3.27273H173.96C174.567 3.27273 175.069 3.37784 175.464 3.58807C175.859 3.79545 176.153 4.07528 176.346 4.42756C176.539 4.77699 176.636 5.16477 176.636 5.59091C176.636 5.96591 176.569 6.27557 176.435 6.51989C176.305 6.7642 176.131 6.95739 175.915 7.09943C175.702 7.24148 175.471 7.34659 175.221 7.41477V7.5C175.488 7.51705 175.756 7.6108 176.026 7.78125C176.296 7.9517 176.522 8.19602 176.704 8.5142C176.886 8.83239 176.977 9.22159 176.977 9.68182C176.977 10.1193 176.877 10.5128 176.678 10.8622C176.479 11.2116 176.165 11.4886 175.737 11.6932C175.308 11.8977 174.749 12 174.062 12H170.908ZM171.965 11.0625H174.062C174.752 11.0625 175.242 10.929 175.532 10.6619C175.825 10.392 175.971 10.0653 175.971 9.68182C175.971 9.38636 175.896 9.11364 175.745 8.86364C175.594 8.6108 175.38 8.40909 175.102 8.25852C174.823 8.10511 174.494 8.02841 174.113 8.02841H171.965V11.0625ZM171.965 7.10795H173.925C174.244 7.10795 174.531 7.04545 174.786 6.92045C175.045 6.79545 175.249 6.61932 175.4 6.39205C175.553 6.16477 175.63 5.89773 175.63 5.59091C175.63 5.20739 175.496 4.8821 175.229 4.61506C174.962 4.34517 174.539 4.21023 173.96 4.21023H171.965V7.10795ZM179.071 12H177.963L181.168 3.27273H182.259L185.463 12H184.355L181.747 4.65341H181.679L179.071 12ZM179.48 8.59091H183.946V9.52841H179.48V8.59091ZM186.822 12V3.27273H187.879V11.0625H191.936V12H186.822ZM194.481 12H193.373L196.578 3.27273H197.669L200.873 12H199.765L197.157 4.65341H197.089L194.481 12ZM194.89 8.59091H199.356V9.52841H194.89V8.59091ZM202.233 12V3.27273H205.284C205.892 3.27273 206.393 3.37784 206.788 3.58807C207.183 3.79545 207.477 4.07528 207.67 4.42756C207.863 4.77699 207.96 5.16477 207.96 5.59091C207.96 5.96591 207.893 6.27557 207.76 6.51989C207.629 6.7642 207.456 6.95739 207.24 7.09943C207.027 7.24148 206.795 7.34659 206.545 7.41477V7.5C206.812 7.51705 207.081 7.6108 207.35 7.78125C207.62 7.9517 207.846 8.19602 208.028 8.5142C208.21 8.83239 208.301 9.22159 208.301 9.68182C208.301 10.1193 208.201 10.5128 208.002 10.8622C207.804 11.2116 207.49 11.4886 207.061 11.6932C206.632 11.8977 206.074 12 205.386 12H202.233ZM203.289 11.0625H205.386C206.076 11.0625 206.566 10.929 206.856 10.6619C207.149 10.392 207.295 10.0653 207.295 9.68182C207.295 9.38636 207.22 9.11364 207.069 8.86364C206.919 8.6108 206.704 8.40909 206.426 8.25852C206.147 8.10511 205.818 8.02841 205.437 8.02841H203.289V11.0625ZM203.289 7.10795H205.25C205.568 7.10795 205.855 7.04545 206.11 6.92045C206.369 6.79545 206.574 6.61932 206.724 6.39205C206.877 6.16477 206.954 5.89773 206.954 5.59091C206.954 5.20739 206.821 4.8821 206.554 4.61506C206.287 4.34517 205.863 4.21023 205.284 4.21023H203.289V7.10795Z" fill="black"/>
</svg>
