<svg width="75" height="11" viewBox="0 0 75 11" fill="none" xmlns="http://www.w3.org/2000/svg">
<path d="M0.579545 2.21023H3.32386V10H4.38068V2.21023H7.125V1.27273H0.579545V2.21023ZM10.4148 10.1364C11.7443 10.1364 12.7159 9.47159 13.0227 8.48295L12.0511 8.21023C11.7955 8.89205 11.2031 9.23295 10.4148 9.23295C9.23438 9.23295 8.42045 8.47017 8.37358 7.06818H13.125V6.64205C13.125 4.20455 11.6761 3.36932 10.3125 3.36932C8.53977 3.36932 7.36364 4.76705 7.36364 6.77841C7.36364 8.78977 8.52273 10.1364 10.4148 10.1364ZM8.37358 6.19886C8.44176 5.1804 9.16193 4.27273 10.3125 4.27273C11.4034 4.27273 12.1023 5.09091 12.1023 6.19886H8.37358ZM14.6548 10H15.6605V5.85795C15.6605 4.97159 16.3594 4.32386 17.3139 4.32386C17.5824 4.32386 17.8594 4.375 17.9276 4.39205V3.36932C17.8125 3.3608 17.5483 3.35227 17.3991 3.35227C16.6151 3.35227 15.9332 3.79545 15.6946 4.44318H15.6264V3.45455H14.6548V10ZM19.1197 10H20.1254V5.90909C20.1254 4.95028 20.8242 4.27273 21.6083 4.27273C22.3711 4.27273 22.9038 4.77131 22.9038 5.51705V10H23.9265V5.73864C23.9265 4.89489 24.4549 4.27273 25.3754 4.27273C26.0913 4.27273 26.7049 4.65199 26.7049 5.61932V10H27.7106V5.61932C27.7106 4.08097 26.8839 3.36932 25.7163 3.36932C24.7788 3.36932 24.0927 3.79972 23.756 4.47727H23.6879C23.364 3.77841 22.793 3.36932 21.9322 3.36932C21.0799 3.36932 20.4492 3.77841 20.1765 4.47727H20.0913V3.45455H19.1197V10ZM34.1857 4.92045C33.8704 3.99148 33.163 3.36932 31.8675 3.36932C30.4869 3.36932 29.4641 4.15341 29.4641 5.26136C29.4641 6.16477 30.0011 6.76989 31.2028 7.05114L32.2937 7.30682C32.9542 7.46023 33.2653 7.77557 33.2653 8.22727C33.2653 8.78977 32.6687 9.25 31.7312 9.25C30.9087 9.25 30.3931 8.89631 30.2141 8.19318L29.2596 8.43182C29.494 9.54403 30.4102 10.1364 31.7482 10.1364C33.2695 10.1364 34.305 9.3054 34.305 8.17614C34.305 7.2642 33.734 6.68892 32.5664 6.40341L31.5948 6.16477C30.8192 5.97301 30.4698 5.71307 30.4698 5.21023C30.4698 4.64773 31.0664 4.23864 31.8675 4.23864C32.7454 4.23864 33.1076 4.72443 33.2823 5.17614L34.1857 4.92045ZM41.853 10.1364C43.6257 10.1364 44.8189 8.78977 44.8189 6.76136C44.8189 4.71591 43.6257 3.36932 41.853 3.36932C40.0803 3.36932 38.8871 4.71591 38.8871 6.76136C38.8871 8.78977 40.0803 10.1364 41.853 10.1364ZM41.853 9.23295C40.5064 9.23295 39.8928 8.07386 39.8928 6.76136C39.8928 5.44886 40.5064 4.27273 41.853 4.27273C43.1996 4.27273 43.8132 5.44886 43.8132 6.76136C43.8132 8.07386 43.1996 9.23295 41.853 9.23295ZM49.2688 3.45455H47.8029V2.78977C47.8029 2.14205 48.0756 1.80114 48.7404 1.80114C49.0302 1.80114 49.2006 1.86932 49.3029 1.90341L49.5927 1.03409C49.4393 0.965909 49.1325 0.863636 48.6381 0.863636C47.7006 0.863636 46.7972 1.42614 46.7972 2.55114V3.45455H45.7404V4.30682H46.7972V10H47.8029V4.30682H49.2688V3.45455ZM59.9169 1.27273V6.96591C59.9169 8.24432 59.0391 9.16477 57.5817 9.16477C56.1243 9.16477 55.2464 8.24432 55.2464 6.96591V1.27273H54.1896V7.05114C54.1896 8.84091 55.5277 10.1534 57.5817 10.1534C59.6357 10.1534 60.9737 8.84091 60.9737 7.05114V1.27273H59.9169ZM67.5842 4.92045C67.2688 3.99148 66.5614 3.36932 65.266 3.36932C63.8853 3.36932 62.8626 4.15341 62.8626 5.26136C62.8626 6.16477 63.3995 6.76989 64.6012 7.05114L65.6921 7.30682C66.3526 7.46023 66.6637 7.77557 66.6637 8.22727C66.6637 8.78977 66.0671 9.25 65.1296 9.25C64.3072 9.25 63.7915 8.89631 63.6126 8.19318L62.658 8.43182C62.8924 9.54403 63.8086 10.1364 65.1467 10.1364C66.668 10.1364 67.7035 9.3054 67.7035 8.17614C67.7035 7.2642 67.1325 6.68892 65.9648 6.40341L64.9933 6.16477C64.2177 5.97301 63.8683 5.71307 63.8683 5.21023C63.8683 4.64773 64.4648 4.23864 65.266 4.23864C66.1438 4.23864 66.506 4.72443 66.6808 5.17614L67.5842 4.92045ZM71.9616 10.1364C73.2912 10.1364 74.2628 9.47159 74.5696 8.48295L73.598 8.21023C73.3423 8.89205 72.75 9.23295 71.9616 9.23295C70.7812 9.23295 69.9673 8.47017 69.9205 7.06818H74.6719V6.64205C74.6719 4.20455 73.223 3.36932 71.8594 3.36932C70.0866 3.36932 68.9105 4.76705 68.9105 6.77841C68.9105 8.78977 70.0696 10.1364 71.9616 10.1364ZM69.9205 6.19886C69.9886 5.1804 70.7088 4.27273 71.8594 4.27273C72.9503 4.27273 73.6491 5.09091 73.6491 6.19886H69.9205Z" fill="black"/>
</svg>
