<svg width="78" height="12" viewBox="0 0 78 12" fill="none" xmlns="http://www.w3.org/2000/svg">
<path d="M0.0568182 9H1.11364V5.8125H3.02273C5.0554 5.8125 5.97159 4.5767 5.97159 3.03409C5.97159 1.49148 5.0554 0.272727 3.00568 0.272727H0.0568182V9ZM1.11364 4.875V1.21023H2.97159C4.39062 1.21023 4.93182 1.9858 4.93182 3.03409C4.93182 4.08239 4.39062 4.875 2.98864 4.875H1.11364ZM7.53764 9H8.54332V4.85795C8.54332 3.97159 9.24219 3.32386 10.1967 3.32386C10.4652 3.32386 10.7422 3.375 10.8104 3.39205V2.36932C10.6953 2.3608 10.4311 2.35227 10.282 2.35227C9.49787 2.35227 8.81605 2.79545 8.57741 3.44318H8.50923V2.45455H7.53764V9ZM12.0025 9H13.0082V2.45455H12.0025V9ZM12.5138 1.36364C12.9059 1.36364 13.2298 1.05682 13.2298 0.681818C13.2298 0.306818 12.9059 0 12.5138 0C12.1218 0 11.7979 0.306818 11.7979 0.681818C11.7979 1.05682 12.1218 1.36364 12.5138 1.36364ZM20.2024 2.45455H19.1115L17.3047 7.67045H17.2365L15.4297 2.45455H14.3388L16.7592 9H17.782L20.2024 2.45455ZM23.2567 9.15341C24.3988 9.15341 24.9954 8.53977 25.1999 8.11364H25.2511V9H26.2567V4.6875C26.2567 2.60795 24.6715 2.36932 23.8363 2.36932C22.8477 2.36932 21.7227 2.71023 21.2113 3.90341L22.1658 4.24432C22.3874 3.76705 22.9116 3.25568 23.8704 3.25568C24.7951 3.25568 25.2511 3.74574 25.2511 4.58523V4.61932C25.2511 5.10511 24.7567 5.0625 23.5636 5.21591C22.3491 5.37358 21.0238 5.64205 21.0238 7.14205C21.0238 8.42045 22.0124 9.15341 23.2567 9.15341ZM23.4102 8.25C22.609 8.25 22.0295 7.89205 22.0295 7.19318C22.0295 6.42614 22.7283 6.1875 23.5124 6.08523C23.9386 6.03409 25.0806 5.91477 25.2511 5.71023V6.63068C25.2511 7.44886 24.6033 8.25 23.4102 8.25ZM30.7514 9.13636C32.2003 9.13636 33.1548 8.25 33.3253 7.09091H32.3196C32.1321 7.80682 31.5355 8.23295 30.7514 8.23295C29.5582 8.23295 28.7912 7.24432 28.7912 5.72727C28.7912 4.24432 29.5753 3.27273 30.7514 3.27273C31.6378 3.27273 32.1662 3.81818 32.3196 4.41477H33.3253C33.1548 3.1875 32.1151 2.36932 30.7344 2.36932C28.9616 2.36932 27.7855 3.76705 27.7855 5.76136C27.7855 7.72159 28.9105 9.13636 30.7514 9.13636ZM35.4432 11.4545C36.3509 11.4545 36.9901 10.973 37.3693 9.95455L40.1562 2.47159L39.0568 2.45455L37.25 7.67045H37.1818L35.375 2.45455H34.2841L36.7045 9.03409L36.517 9.54545C36.1506 10.5426 35.6989 10.6364 34.9659 10.4489L34.7102 11.3352C34.8125 11.3864 35.1023 11.4545 35.4432 11.4545ZM44.9982 9H46.055V5.8125H47.9641C49.9968 5.8125 50.913 4.5767 50.913 3.03409C50.913 1.49148 49.9968 0.272727 47.9471 0.272727H44.9982V9ZM46.055 4.875V1.21023H47.913C49.332 1.21023 49.8732 1.9858 49.8732 3.03409C49.8732 4.08239 49.332 4.875 47.93 4.875H46.055ZM55.0678 9.13636C56.8406 9.13636 58.0337 7.78977 58.0337 5.76136C58.0337 3.71591 56.8406 2.36932 55.0678 2.36932C53.2951 2.36932 52.1019 3.71591 52.1019 5.76136C52.1019 7.78977 53.2951 9.13636 55.0678 9.13636ZM55.0678 8.23295C53.7212 8.23295 53.1076 7.07386 53.1076 5.76136C53.1076 4.44886 53.7212 3.27273 55.0678 3.27273C56.4144 3.27273 57.0281 4.44886 57.0281 5.76136C57.0281 7.07386 56.4144 8.23295 55.0678 8.23295ZM60.5746 0.272727H59.5689V9H60.5746V0.272727ZM62.4165 9H63.4222V2.45455H62.4165V9ZM62.9279 1.36364C63.32 1.36364 63.6438 1.05682 63.6438 0.681818C63.6438 0.306818 63.32 0 62.9279 0C62.5359 0 62.212 0.306818 62.212 0.681818C62.212 1.05682 62.5359 1.36364 62.9279 1.36364ZM67.9233 9.13636C69.3722 9.13636 70.3267 8.25 70.4972 7.09091H69.4915C69.304 7.80682 68.7074 8.23295 67.9233 8.23295C66.7301 8.23295 65.9631 7.24432 65.9631 5.72727C65.9631 4.24432 66.7472 3.27273 67.9233 3.27273C68.8097 3.27273 69.3381 3.81818 69.4915 4.41477H70.4972C70.3267 3.1875 69.2869 2.36932 67.9062 2.36932C66.1335 2.36932 64.9574 3.76705 64.9574 5.76136C64.9574 7.72159 66.0824 9.13636 67.9233 9.13636ZM72.6151 11.4545C73.5227 11.4545 74.1619 10.973 74.5412 9.95455L77.3281 2.47159L76.2287 2.45455L74.4219 7.67045H74.3537L72.5469 2.45455H71.456L73.8764 9.03409L73.6889 9.54545C73.3224 10.5426 72.8707 10.6364 72.1378 10.4489L71.8821 11.3352C71.9844 11.3864 72.2741 11.4545 72.6151 11.4545Z" fill="black"/>
</svg>
