<svg width="466" height="192" viewBox="0 0 466 192" fill="none" xmlns="http://www.w3.org/2000/svg">
<path d="M16.736 46.5V4.932H0.64V0.419998H37.536V4.932H21.44V46.5H16.736ZM52.1665 47.46C48.7958 47.46 45.8732 46.7133 43.3985 45.22C40.9452 43.7267 39.0358 41.6253 37.6705 38.916C36.3052 36.2067 35.6225 33.028 35.6225 29.38C35.6225 25.604 36.2945 22.34 37.6385 19.588C38.9825 16.836 40.8705 14.7133 43.3025 13.22C45.7558 11.7267 48.6465 10.98 51.9745 10.98C55.3878 10.98 58.2998 11.7693 60.7105 13.348C63.1212 14.9053 64.9452 17.1453 66.1825 20.068C67.4198 22.9907 67.9852 26.4787 67.8785 30.532H63.0785V28.868C62.9932 24.388 62.0225 21.0067 60.1665 18.724C58.3318 16.4413 55.6438 15.3 52.1025 15.3C48.3905 15.3 45.5425 16.5053 43.5585 18.916C41.5958 21.3267 40.6145 24.7613 40.6145 29.22C40.6145 33.572 41.5958 36.9533 43.5585 39.364C45.5425 41.7533 48.3478 42.948 51.9745 42.948C54.4492 42.948 56.6038 42.3827 58.4385 41.252C60.2945 40.1 61.7558 38.4467 62.8225 36.292L67.2065 37.988C65.8412 40.996 63.8252 43.332 61.1585 44.996C58.5132 46.6387 55.5158 47.46 52.1665 47.46ZM38.9505 30.532V26.596H65.3505V30.532H38.9505ZM88.4325 5.38V0.0999985H93.1365V5.38H88.4325ZM88.4325 46.5V11.94H93.1365V46.5H88.4325ZM127.69 46.5V28.868C127.69 26.948 127.509 25.188 127.146 23.588C126.783 21.9667 126.197 20.5587 125.386 19.364C124.597 18.148 123.562 17.2093 122.282 16.548C121.023 15.8867 119.487 15.556 117.674 15.556C116.01 15.556 114.538 15.844 113.258 16.42C111.999 16.996 110.933 17.828 110.058 18.916C109.205 19.9827 108.554 21.284 108.106 22.82C107.658 24.356 107.434 26.1053 107.434 28.068L104.106 27.332C104.106 23.7907 104.725 20.8147 105.962 18.404C107.199 15.9933 108.906 14.1693 111.082 12.932C113.258 11.6947 115.754 11.076 118.57 11.076C120.639 11.076 122.442 11.396 123.978 12.036C125.535 12.676 126.847 13.54 127.914 14.628C129.002 15.716 129.877 16.964 130.538 18.372C131.199 19.7587 131.679 21.2413 131.978 22.82C132.277 24.3773 132.426 25.9347 132.426 27.492V46.5H127.69ZM102.698 46.5V11.94H106.954V20.452H107.434V46.5H102.698ZM150.074 46.5L137.53 11.94H142.298L152.506 40.356L162.65 11.94H167.482L154.938 46.5H150.074ZM173.87 5.38V0.0999985H178.574V5.38H173.87ZM173.87 46.5V11.94H178.574V46.5H173.87ZM206.984 46.5C205.042 46.9053 203.122 47.0653 201.224 46.98C199.346 46.8947 197.661 46.4893 196.168 45.764C194.696 45.0387 193.576 43.908 192.808 42.372C192.189 41.092 191.848 39.8013 191.784 38.5C191.741 37.1773 191.72 35.6733 191.72 33.988V2.34H196.392V33.796C196.392 35.2467 196.402 36.4627 196.424 37.444C196.466 38.404 196.69 39.2573 197.096 40.004C197.864 41.4333 199.08 42.2867 200.744 42.564C202.429 42.8413 204.509 42.7773 206.984 42.372V46.5ZM184.328 15.972V11.94H206.984V15.972H184.328ZM223.681 47.46C221.078 47.46 218.891 46.9907 217.121 46.052C215.371 45.1133 214.059 43.8653 213.185 42.308C212.31 40.7507 211.873 39.0547 211.873 37.22C211.873 35.3427 212.246 33.7427 212.993 32.42C213.761 31.076 214.795 29.9773 216.097 29.124C217.419 28.2707 218.945 27.62 220.673 27.172C222.422 26.7453 224.353 26.372 226.465 26.052C228.598 25.7107 230.678 25.4227 232.705 25.188C234.753 24.932 236.545 24.6867 238.081 24.452L236.417 25.476C236.481 22.0627 235.819 19.5347 234.433 17.892C233.046 16.2493 230.635 15.428 227.201 15.428C224.833 15.428 222.827 15.9613 221.185 17.028C219.563 18.0947 218.422 19.78 217.76 22.084L213.185 20.74C213.974 17.6467 215.563 15.2467 217.953 13.54C220.342 11.8333 223.446 10.98 227.265 10.98C230.422 10.98 233.099 11.5773 235.297 12.772C237.515 13.9453 239.083 15.652 240.001 17.892C240.427 18.8947 240.705 20.0147 240.833 21.252C240.961 22.4893 241.025 23.748 241.025 25.028V46.5H236.833V37.828L238.049 38.34C236.875 41.3053 235.051 43.5667 232.577 45.124C230.102 46.6813 227.137 47.46 223.681 47.46ZM224.225 43.396C226.422 43.396 228.342 43.0013 229.985 42.212C231.627 41.4227 232.95 40.3453 233.953 38.98C234.955 37.5933 235.606 36.036 235.905 34.308C236.161 33.1987 236.299 31.9827 236.321 30.66C236.342 29.316 236.353 28.3133 236.353 27.652L238.145 28.58C236.545 28.7933 234.806 29.0067 232.929 29.22C231.073 29.4333 229.238 29.6787 227.425 29.956C225.633 30.2333 224.011 30.564 222.561 30.948C221.579 31.2253 220.63 31.62 219.713 32.132C218.795 32.6227 218.038 33.284 217.441 34.116C216.865 34.948 216.577 35.9827 216.577 37.22C216.577 38.2227 216.822 39.1933 217.312 40.132C217.825 41.0707 218.635 41.8493 219.745 42.468C220.875 43.0867 222.369 43.396 224.225 43.396ZM290.571 46.5L290.603 23.812C290.603 21.1453 289.856 19.0547 288.363 17.54C286.891 16.004 285.014 15.236 282.731 15.236C281.43 15.236 280.16 15.5347 278.923 16.132C277.686 16.7293 276.662 17.6893 275.851 19.012C275.062 20.3347 274.667 22.0627 274.667 24.196L271.883 23.396C271.819 20.9213 272.299 18.756 273.323 16.9C274.368 15.044 275.798 13.604 277.611 12.58C279.446 11.5347 281.515 11.012 283.819 11.012C287.296 11.012 290.08 12.0893 292.171 14.244C294.262 16.3773 295.307 19.268 295.307 22.916L295.275 46.5H290.571ZM249.323 46.5V11.94H253.547V20.452H254.059V46.5H249.323ZM269.995 46.5L270.027 24.132C270.027 21.38 269.291 19.2147 267.819 17.636C266.368 16.036 264.448 15.236 262.059 15.236C259.67 15.236 257.739 16.0573 256.267 17.7C254.795 19.3213 254.059 21.4867 254.059 24.196L251.243 22.66C251.243 20.4413 251.766 18.4573 252.811 16.708C253.856 14.9373 255.286 13.5507 257.099 12.548C258.912 11.524 260.971 11.012 263.275 11.012C265.472 11.012 267.424 11.4813 269.131 12.42C270.859 13.3587 272.214 14.724 273.195 16.516C274.176 18.308 274.667 20.484 274.667 23.044L274.635 46.5H269.995ZM317.85 47.46C314.415 47.46 311.482 46.6813 309.05 45.124C306.618 43.5667 304.751 41.412 303.45 38.66C302.148 35.908 301.498 32.7507 301.498 29.188C301.498 25.5613 302.159 22.3827 303.482 19.652C304.804 16.9213 306.682 14.7987 309.114 13.284C311.567 11.748 314.479 10.98 317.85 10.98C321.306 10.98 324.25 11.7587 326.682 13.316C329.135 14.852 331.002 16.996 332.282 19.748C333.583 22.4787 334.234 25.6253 334.234 29.188C334.234 32.8147 333.583 36.004 332.282 38.756C330.98 41.4867 329.103 43.62 326.65 45.156C324.196 46.692 321.263 47.46 317.85 47.46ZM317.85 42.948C321.69 42.948 324.548 41.6787 326.426 39.14C328.303 36.58 329.242 33.2627 329.242 29.188C329.242 25.0067 328.292 21.6787 326.394 19.204C324.516 16.7293 321.668 15.492 317.85 15.492C315.268 15.492 313.135 16.0787 311.45 17.252C309.786 18.404 308.538 20.0147 307.706 22.084C306.895 24.132 306.49 26.5 306.49 29.188C306.49 33.348 307.45 36.6867 309.37 39.204C311.29 41.7 314.116 42.948 317.85 42.948ZM353.876 47.428C349.823 47.428 346.484 46.5533 343.86 44.804C341.257 43.0547 339.657 40.6227 339.06 37.508L343.86 36.708C344.372 38.6707 345.535 40.2387 347.348 41.412C349.183 42.564 351.444 43.14 354.132 43.14C356.756 43.14 358.825 42.596 360.34 41.508C361.855 40.3987 362.612 38.8947 362.612 36.996C362.612 35.9293 362.367 35.0653 361.876 34.404C361.407 33.7213 360.436 33.092 358.964 32.516C357.492 31.94 355.295 31.2573 352.372 30.468C349.236 29.6147 346.783 28.7613 345.012 27.908C343.241 27.0547 341.983 26.0733 341.236 24.964C340.489 23.8333 340.116 22.4573 340.116 20.836C340.116 18.8733 340.671 17.156 341.78 15.684C342.889 14.1907 344.425 13.0387 346.388 12.228C348.351 11.396 350.633 10.98 353.236 10.98C355.839 10.98 358.164 11.4067 360.212 12.26C362.281 13.092 363.945 14.2653 365.204 15.78C366.463 17.2947 367.209 19.0547 367.444 21.06L362.644 21.924C362.324 19.8973 361.311 18.2973 359.604 17.124C357.919 15.9293 355.775 15.3107 353.172 15.268C350.719 15.204 348.724 15.6733 347.188 16.676C345.652 17.6573 344.884 18.9693 344.884 20.612C344.884 21.5293 345.161 22.3187 345.716 22.98C346.271 23.62 347.273 24.228 348.724 24.804C350.196 25.38 352.287 26.0093 354.996 26.692C358.175 27.5027 360.671 28.356 362.484 29.252C364.297 30.148 365.588 31.204 366.356 32.42C367.124 33.636 367.508 35.14 367.508 36.932C367.508 40.196 366.292 42.7667 363.86 44.644C361.449 46.5 358.121 47.428 353.876 47.428ZM397.306 47.46C394.703 47.46 392.516 46.9907 390.746 46.052C388.996 45.1133 387.684 43.8653 386.81 42.308C385.935 40.7507 385.498 39.0547 385.498 37.22C385.498 35.3427 385.871 33.7427 386.618 32.42C387.386 31.076 388.42 29.9773 389.722 29.124C391.044 28.2707 392.57 27.62 394.298 27.172C396.047 26.7453 397.978 26.372 400.09 26.052C402.223 25.7107 404.303 25.4227 406.33 25.188C408.378 24.932 410.17 24.6867 411.706 24.452L410.042 25.476C410.106 22.0627 409.444 19.5347 408.058 17.892C406.671 16.2493 404.26 15.428 400.826 15.428C398.458 15.428 396.452 15.9613 394.81 17.028C393.188 18.0947 392.047 19.78 391.385 22.084L386.81 20.74C387.599 17.6467 389.188 15.2467 391.578 13.54C393.967 11.8333 397.071 10.98 400.89 10.98C404.047 10.98 406.724 11.5773 408.922 12.772C411.14 13.9453 412.708 15.652 413.626 17.892C414.052 18.8947 414.33 20.0147 414.458 21.252C414.586 22.4893 414.65 23.748 414.65 25.028V46.5H410.458V37.828L411.674 38.34C410.5 41.3053 408.676 43.5667 406.202 45.124C403.727 46.6813 400.762 47.46 397.306 47.46ZM397.85 43.396C400.047 43.396 401.967 43.0013 403.61 42.212C405.252 41.4227 406.575 40.3453 407.578 38.98C408.58 37.5933 409.231 36.036 409.53 34.308C409.786 33.1987 409.924 31.9827 409.946 30.66C409.967 29.316 409.978 28.3133 409.978 27.652L411.77 28.58C410.17 28.7933 408.431 29.0067 406.554 29.22C404.698 29.4333 402.863 29.6787 401.05 29.956C399.258 30.2333 397.636 30.564 396.186 30.948C395.204 31.2253 394.255 31.62 393.338 32.132C392.42 32.6227 391.663 33.284 391.066 34.116C390.49 34.948 390.202 35.9827 390.202 37.22C390.202 38.2227 390.447 39.1933 390.938 40.132C391.45 41.0707 392.26 41.8493 393.37 42.468C394.5 43.0867 395.994 43.396 397.85 43.396ZM18.816 119.46C15.3387 119.46 12.3947 118.681 9.984 117.124C7.57333 115.567 5.73867 113.423 4.48 110.692C3.24267 107.94 2.60267 104.783 2.56 101.22C2.60267 97.5933 3.264 94.4147 4.544 91.684C5.824 88.932 7.66933 86.7987 10.08 85.284C12.4907 83.748 15.4133 82.98 18.848 82.98C22.3467 82.98 25.3867 83.8333 27.968 85.54C30.5707 87.2467 32.352 89.5827 33.312 92.548L28.704 94.02C27.8933 91.9507 26.6027 90.3507 24.832 89.22C23.0827 88.068 21.0773 87.492 18.816 87.492C16.2773 87.492 14.176 88.0787 12.512 89.252C10.848 90.404 9.61067 92.0147 8.8 94.084C7.98933 96.1533 7.57333 98.532 7.552 101.22C7.59467 105.359 8.55467 108.687 10.432 111.204C12.3093 113.7 15.104 114.948 18.816 114.948C21.1627 114.948 23.1573 114.415 24.8 113.348C26.464 112.26 27.7227 110.681 28.576 108.612L33.312 110.02C32.032 113.092 30.1547 115.439 27.68 117.06C25.2053 118.66 22.2507 119.46 18.816 119.46ZM53.412 119.46C49.9773 119.46 47.044 118.681 44.612 117.124C42.18 115.567 40.3133 113.412 39.012 110.66C37.7107 107.908 37.06 104.751 37.06 101.188C37.06 97.5613 37.7213 94.3827 39.044 91.652C40.3667 88.9213 42.244 86.7987 44.676 85.284C47.1293 83.748 50.0413 82.98 53.412 82.98C56.868 82.98 59.812 83.7587 62.244 85.316C64.6973 86.852 66.564 88.996 67.844 91.748C69.1453 94.4787 69.796 97.6253 69.796 101.188C69.796 104.815 69.1453 108.004 67.844 110.756C66.5427 113.487 64.6653 115.62 62.212 117.156C59.7587 118.692 56.8253 119.46 53.412 119.46ZM53.412 114.948C57.252 114.948 60.1107 113.679 61.988 111.14C63.8653 108.58 64.804 105.263 64.804 101.188C64.804 97.0067 63.8547 93.6787 61.956 91.204C60.0787 88.7293 57.2307 87.492 53.412 87.492C50.8307 87.492 48.6973 88.0787 47.012 89.252C45.348 90.404 44.1 92.0147 43.268 94.084C42.4573 96.132 42.052 98.5 42.052 101.188C42.052 105.348 43.012 108.687 44.932 111.204C46.852 113.7 49.6787 114.948 53.412 114.948ZM101.815 118.5V100.868C101.815 98.948 101.634 97.188 101.271 95.588C100.908 93.9667 100.322 92.5587 99.511 91.364C98.7217 90.148 97.687 89.2093 96.407 88.548C95.1483 87.8867 93.6123 87.556 91.799 87.556C90.135 87.556 88.663 87.844 87.383 88.42C86.1243 88.996 85.0577 89.828 84.183 90.916C83.3297 91.9827 82.679 93.284 82.231 94.82C81.783 96.356 81.559 98.1053 81.559 100.068L78.231 99.332C78.231 95.7907 78.8497 92.8147 80.087 90.404C81.3243 87.9933 83.031 86.1693 85.207 84.932C87.383 83.6947 89.879 83.076 92.695 83.076C94.7643 83.076 96.567 83.396 98.103 84.036C99.6603 84.676 100.972 85.54 102.039 86.628C103.127 87.716 104.002 88.964 104.663 90.372C105.324 91.7587 105.804 93.2413 106.103 94.82C106.402 96.3773 106.551 97.9347 106.551 99.492V118.5H101.815ZM76.823 118.5V83.94H81.079V92.452H81.559V118.5H76.823ZM129.1 119.46C125.665 119.46 122.732 118.681 120.3 117.124C117.868 115.567 116.001 113.412 114.7 110.66C113.398 107.908 112.748 104.751 112.748 101.188C112.748 97.5613 113.409 94.3827 114.732 91.652C116.054 88.9213 117.932 86.7987 120.364 85.284C122.817 83.748 125.729 82.98 129.1 82.98C132.556 82.98 135.5 83.7587 137.932 85.316C140.385 86.852 142.252 88.996 143.532 91.748C144.833 94.4787 145.484 97.6253 145.484 101.188C145.484 104.815 144.833 108.004 143.532 110.756C142.23 113.487 140.353 115.62 137.9 117.156C135.446 118.692 132.513 119.46 129.1 119.46ZM129.1 114.948C132.94 114.948 135.798 113.679 137.676 111.14C139.553 108.58 140.492 105.263 140.492 101.188C140.492 97.0067 139.542 93.6787 137.644 91.204C135.766 88.7293 132.918 87.492 129.1 87.492C126.518 87.492 124.385 88.0787 122.7 89.252C121.036 90.404 119.788 92.0147 118.956 94.084C118.145 96.132 117.74 98.5 117.74 101.188C117.74 105.348 118.7 108.687 120.62 111.204C122.54 113.7 125.366 114.948 129.1 114.948ZM166.878 119.46C163.401 119.46 160.457 118.681 158.047 117.124C155.636 115.567 153.801 113.423 152.543 110.692C151.305 107.94 150.665 104.783 150.623 101.22C150.665 97.5933 151.327 94.4147 152.607 91.684C153.887 88.932 155.732 86.7987 158.143 85.284C160.553 83.748 163.476 82.98 166.911 82.98C170.409 82.98 173.449 83.8333 176.031 85.54C178.633 87.2467 180.415 89.5827 181.375 92.548L176.767 94.02C175.956 91.9507 174.665 90.3507 172.895 89.22C171.145 88.068 169.14 87.492 166.878 87.492C164.34 87.492 162.239 88.0787 160.575 89.252C158.911 90.404 157.673 92.0147 156.863 94.084C156.052 96.1533 155.636 98.532 155.615 101.22C155.657 105.359 156.617 108.687 158.495 111.204C160.372 113.7 163.167 114.948 166.878 114.948C169.225 114.948 171.22 114.415 172.863 113.348C174.527 112.26 175.785 110.681 176.639 108.612L181.375 110.02C180.095 113.092 178.217 115.439 175.743 117.06C173.268 118.66 170.313 119.46 166.878 119.46ZM201.667 119.46C198.296 119.46 195.373 118.713 192.899 117.22C190.445 115.727 188.536 113.625 187.171 110.916C185.805 108.207 185.123 105.028 185.123 101.38C185.123 97.604 185.795 94.34 187.139 91.588C188.483 88.836 190.371 86.7133 192.803 85.22C195.256 83.7267 198.147 82.98 201.475 82.98C204.888 82.98 207.8 83.7693 210.211 85.348C212.621 86.9053 214.445 89.1453 215.683 92.068C216.92 94.9907 217.485 98.4787 217.379 102.532H212.579V100.868C212.493 96.388 211.523 93.0067 209.667 90.724C207.832 88.4413 205.144 87.3 201.603 87.3C197.891 87.3 195.043 88.5053 193.059 90.916C191.096 93.3267 190.115 96.7613 190.115 101.22C190.115 105.572 191.096 108.953 193.059 111.364C195.043 113.753 197.848 114.948 201.475 114.948C203.949 114.948 206.104 114.383 207.939 113.252C209.795 112.1 211.256 110.447 212.323 108.292L216.707 109.988C215.341 112.996 213.325 115.332 210.659 116.996C208.013 118.639 205.016 119.46 201.667 119.46ZM188.451 102.532V98.596H214.851V102.532H188.451ZM224.48 118.5V83.94H228.704V92.26L227.872 91.172C228.256 90.148 228.757 89.2093 229.376 88.356C229.995 87.4813 230.667 86.7667 231.392 86.212C232.288 85.4227 233.333 84.8253 234.528 84.42C235.723 83.9933 236.928 83.748 238.144 83.684C239.36 83.5987 240.469 83.684 241.472 83.94V88.356C240.213 88.036 238.837 87.9613 237.344 88.132C235.851 88.3027 234.475 88.9 233.216 89.924C232.064 90.82 231.2 91.8973 230.624 93.156C230.048 94.3933 229.664 95.716 229.472 97.124C229.28 98.5107 229.184 99.8867 229.184 101.252V118.5H224.48ZM301.571 118.5L301.603 95.812C301.603 93.1453 300.856 91.0547 299.363 89.54C297.891 88.004 296.014 87.236 293.731 87.236C292.43 87.236 291.16 87.5347 289.923 88.132C288.686 88.7293 287.662 89.6893 286.851 91.012C286.062 92.3347 285.667 94.0627 285.667 96.196L282.883 95.396C282.819 92.9213 283.299 90.756 284.323 88.9C285.368 87.044 286.798 85.604 288.611 84.58C290.446 83.5347 292.515 83.012 294.819 83.012C298.296 83.012 301.08 84.0893 303.171 86.244C305.262 88.3773 306.307 91.268 306.307 94.916L306.275 118.5H301.571ZM260.323 118.5V83.94H264.547V92.452H265.059V118.5H260.323ZM280.995 118.5L281.027 96.132C281.027 93.38 280.291 91.2147 278.819 89.636C277.368 88.036 275.448 87.236 273.059 87.236C270.67 87.236 268.739 88.0573 267.267 89.7C265.795 91.3213 265.059 93.4867 265.059 96.196L262.243 94.66C262.243 92.4413 262.766 90.4573 263.811 88.708C264.856 86.9373 266.286 85.5507 268.099 84.548C269.912 83.524 271.971 83.012 274.275 83.012C276.472 83.012 278.424 83.4813 280.131 84.42C281.859 85.3587 283.214 86.724 284.195 88.516C285.176 90.308 285.667 92.484 285.667 95.044L285.635 118.5H280.995ZM330.285 78.5H326.253L330.093 68.58H334.125L330.285 78.5ZM324.493 119.46C321.89 119.46 319.704 118.991 317.933 118.052C316.184 117.113 314.872 115.865 313.997 114.308C313.122 112.751 312.685 111.055 312.685 109.22C312.685 107.343 313.058 105.743 313.805 104.42C314.573 103.076 315.608 101.977 316.909 101.124C318.232 100.271 319.757 99.62 321.485 99.172C323.234 98.7453 325.165 98.372 327.277 98.052C329.41 97.7107 331.49 97.4227 333.517 97.188C335.565 96.932 337.357 96.6867 338.893 96.452L337.229 97.476C337.293 94.0627 336.632 91.5347 335.245 89.892C333.858 88.2493 331.448 87.428 328.013 87.428C325.645 87.428 323.64 87.9613 321.997 89.028C320.376 90.0947 319.234 91.78 318.573 94.084L313.997 92.74C314.786 89.6467 316.376 87.2467 318.765 85.54C321.154 83.8333 324.258 82.98 328.077 82.98C331.234 82.98 333.912 83.5773 336.109 84.772C338.328 85.9453 339.896 87.652 340.813 89.892C341.24 90.8947 341.517 92.0147 341.645 93.252C341.773 94.4893 341.837 95.748 341.837 97.028V118.5H337.645V109.828L338.861 110.34C337.688 113.305 335.864 115.567 333.389 117.124C330.914 118.681 327.949 119.46 324.493 119.46ZM325.037 115.396C327.234 115.396 329.154 115.001 330.797 114.212C332.44 113.423 333.762 112.345 334.765 110.98C335.768 109.593 336.418 108.036 336.717 106.308C336.973 105.199 337.112 103.983 337.133 102.66C337.154 101.316 337.165 100.313 337.165 99.652L338.957 100.58C337.357 100.793 335.618 101.007 333.741 101.22C331.885 101.433 330.05 101.679 328.237 101.956C326.445 102.233 324.824 102.564 323.373 102.948C322.392 103.225 321.442 103.62 320.525 104.132C319.608 104.623 318.85 105.284 318.253 106.116C317.677 106.948 317.389 107.983 317.389 109.22C317.389 110.223 317.634 111.193 318.125 112.132C318.637 113.071 319.448 113.849 320.557 114.468C321.688 115.087 323.181 115.396 325.037 115.396ZM363.064 119.428C359.01 119.428 355.672 118.553 353.048 116.804C350.445 115.055 348.845 112.623 348.248 109.508L353.048 108.708C353.56 110.671 354.722 112.239 356.536 113.412C358.37 114.564 360.632 115.14 363.319 115.14C365.944 115.14 368.013 114.596 369.528 113.508C371.042 112.399 371.8 110.895 371.8 108.996C371.8 107.929 371.554 107.065 371.064 106.404C370.594 105.721 369.624 105.092 368.152 104.516C366.68 103.94 364.482 103.257 361.56 102.468C358.424 101.615 355.97 100.761 354.2 99.908C352.429 99.0547 351.17 98.0733 350.424 96.964C349.677 95.8333 349.304 94.4573 349.304 92.836C349.304 90.8733 349.858 89.156 350.968 87.684C352.077 86.1907 353.613 85.0387 355.576 84.228C357.538 83.396 359.821 82.98 362.424 82.98C365.026 82.98 367.352 83.4067 369.4 84.26C371.469 85.092 373.133 86.2653 374.392 87.78C375.65 89.2947 376.397 91.0547 376.632 93.06L371.832 93.924C371.512 91.8973 370.498 90.2973 368.792 89.124C367.106 87.9293 364.962 87.3107 362.36 87.268C359.906 87.204 357.912 87.6733 356.376 88.676C354.84 89.6573 354.072 90.9693 354.072 92.612C354.072 93.5293 354.349 94.3187 354.904 94.98C355.458 95.62 356.461 96.228 357.912 96.804C359.384 97.38 361.474 98.0093 364.184 98.692C367.362 99.5027 369.858 100.356 371.672 101.252C373.485 102.148 374.776 103.204 375.544 104.42C376.312 105.636 376.696 107.14 376.696 108.932C376.696 112.196 375.48 114.767 373.048 116.644C370.637 118.5 367.309 119.428 363.064 119.428ZM410.013 119.46C406.792 119.46 404.04 118.66 401.757 117.06C399.474 115.439 397.725 113.252 396.509 110.5C395.293 107.748 394.685 104.644 394.685 101.188C394.685 97.7533 395.282 94.66 396.477 91.908C397.693 89.156 399.432 86.98 401.693 85.38C403.954 83.78 406.664 82.98 409.821 82.98C413.064 82.98 415.794 83.7693 418.013 85.348C420.232 86.9267 421.906 89.092 423.037 91.844C424.189 94.5747 424.765 97.6893 424.765 101.188C424.765 104.623 424.2 107.727 423.069 110.5C421.938 113.252 420.274 115.439 418.077 117.06C415.88 118.66 413.192 119.46 410.013 119.46ZM410.493 115.076C412.946 115.076 414.973 114.479 416.573 113.284C418.173 112.089 419.368 110.447 420.157 108.356C420.946 106.244 421.341 103.855 421.341 101.188C421.341 98.4787 420.946 96.0893 420.157 94.02C419.368 91.9293 418.173 90.2973 416.573 89.124C414.994 87.9507 413 87.364 410.589 87.364C408.114 87.364 406.066 87.972 404.445 89.188C402.824 90.404 401.618 92.0573 400.829 94.148C400.061 96.2387 399.677 98.5853 399.677 101.188C399.677 103.812 400.072 106.18 400.861 108.292C401.672 110.383 402.877 112.036 404.477 113.252C406.077 114.468 408.082 115.076 410.493 115.076ZM421.341 118.5V92.484H420.829V72.42H425.565V118.5H421.341ZM449.167 119.46C445.796 119.46 442.873 118.713 440.399 117.22C437.945 115.727 436.036 113.625 434.671 110.916C433.305 108.207 432.623 105.028 432.623 101.38C432.623 97.604 433.295 94.34 434.639 91.588C435.983 88.836 437.871 86.7133 440.303 85.22C442.756 83.7267 445.647 82.98 448.975 82.98C452.388 82.98 455.3 83.7693 457.711 85.348C460.121 86.9053 461.945 89.1453 463.183 92.068C464.42 94.9907 464.985 98.4787 464.879 102.532H460.079V100.868C459.993 96.388 459.023 93.0067 457.167 90.724C455.332 88.4413 452.644 87.3 449.103 87.3C445.391 87.3 442.543 88.5053 440.559 90.916C438.596 93.3267 437.615 96.7613 437.615 101.22C437.615 105.572 438.596 108.953 440.559 111.364C442.543 113.753 445.348 114.948 448.975 114.948C451.449 114.948 453.604 114.383 455.439 113.252C457.295 112.1 458.756 110.447 459.823 108.292L464.207 109.988C462.841 112.996 460.825 115.332 458.159 116.996C455.513 118.639 452.516 119.46 449.167 119.46ZM435.951 102.532V98.596H462.351V102.532H435.951Z" fill="#1062AD"/>
<path d="M23.712 191.46C19.104 191.46 15.1787 190.457 11.936 188.452C8.69333 186.425 6.208 183.609 4.48 180.004C2.77333 176.399 1.92 172.217 1.92 167.46C1.92 162.703 2.77333 158.521 4.48 154.916C6.208 151.311 8.69333 148.505 11.936 146.5C15.1787 144.473 19.104 143.46 23.712 143.46C29.024 143.46 33.4187 144.804 36.896 147.492C40.3947 150.18 42.8267 153.796 44.192 158.34L37.408 160.164C36.512 156.943 34.912 154.415 32.608 152.58C30.3253 150.745 27.36 149.828 23.712 149.828C20.448 149.828 17.728 150.564 15.552 152.036C13.376 153.508 11.7333 155.567 10.624 158.212C9.536 160.857 8.992 163.94 8.992 167.46C8.97067 170.98 9.504 174.063 10.592 176.708C11.7013 179.353 13.344 181.412 15.52 182.884C17.7173 184.356 20.448 185.092 23.712 185.092C27.36 185.092 30.3253 184.175 32.608 182.34C34.912 180.484 36.512 177.956 37.408 174.756L44.192 176.58C42.8267 181.124 40.3947 184.74 36.896 187.428C33.4187 190.116 29.024 191.46 23.712 191.46ZM46.78 190.5L61.756 144.42H71.388L86.364 190.5H79.42L65.628 148.452H67.356L53.724 190.5H46.78ZM54.556 180.1V173.828H78.62V180.1H54.556ZM110.087 191.46C105.479 191.46 101.554 190.457 98.311 188.452C95.0683 186.425 92.583 183.609 90.855 180.004C89.1483 176.399 88.295 172.217 88.295 167.46C88.295 162.703 89.1483 158.521 90.855 154.916C92.583 151.311 95.0683 148.505 98.311 146.5C101.554 144.473 105.479 143.46 110.087 143.46C114.674 143.46 118.588 144.473 121.831 146.5C125.095 148.505 127.58 151.311 129.287 154.916C130.994 158.521 131.847 162.703 131.847 167.46C131.847 172.217 130.994 176.399 129.287 180.004C127.58 183.609 125.095 186.425 121.831 188.452C118.588 190.457 114.674 191.46 110.087 191.46ZM110.087 185.092C113.351 185.135 116.06 184.42 118.215 182.948C120.391 181.455 122.023 179.385 123.111 176.74C124.199 174.073 124.743 170.98 124.743 167.46C124.743 163.94 124.199 160.868 123.111 158.244C122.023 155.599 120.391 153.54 118.215 152.068C116.06 150.596 113.351 149.849 110.087 149.828C106.823 149.785 104.103 150.5 101.927 151.972C99.7723 153.444 98.151 155.513 97.063 158.18C95.975 160.847 95.4203 163.94 95.399 167.46C95.3777 170.98 95.911 174.063 96.999 176.708C98.087 179.332 99.719 181.38 101.895 182.852C104.092 184.324 106.823 185.071 110.087 185.092ZM138.23 190.5V144.42H156.342C159.265 144.42 161.718 145.017 163.702 146.212C165.686 147.407 167.179 148.953 168.182 150.852C169.185 152.729 169.686 154.713 169.686 156.804C169.686 159.343 169.057 161.519 167.798 163.332C166.561 165.145 164.886 166.383 162.774 167.044L162.71 165.476C165.654 166.201 167.915 167.62 169.494 169.732C171.073 171.823 171.862 174.265 171.862 177.06C171.862 179.769 171.318 182.127 170.23 184.132C169.163 186.137 167.595 187.705 165.526 188.836C163.478 189.945 160.993 190.5 158.07 190.5H138.23ZM145.014 184.132H157.046C158.561 184.132 159.915 183.844 161.11 183.268C162.326 182.692 163.275 181.871 163.958 180.804C164.662 179.716 165.014 178.425 165.014 176.932C165.014 175.545 164.705 174.297 164.086 173.188C163.489 172.057 162.614 171.172 161.462 170.532C160.331 169.871 158.998 169.54 157.462 169.54H145.014V184.132ZM145.014 163.236H156.246C157.483 163.236 158.593 162.991 159.574 162.5C160.577 161.988 161.366 161.263 161.942 160.324C162.539 159.364 162.838 158.212 162.838 156.868C162.838 155.076 162.241 153.604 161.046 152.452C159.851 151.3 158.251 150.724 156.246 150.724H145.014V163.236ZM175.03 190.5L190.006 144.42H199.638L214.614 190.5H207.67L193.878 148.452H195.606L181.974 190.5H175.03ZM182.806 180.1V173.828H206.87V180.1H182.806ZM233.808 190.5V144.42H240.496V184.196H261.36V190.5H233.808ZM263.593 190.5L278.569 144.42H288.201L303.177 190.5H296.233L282.441 148.452H284.169L270.536 190.5H263.593ZM271.369 180.1V173.828H295.433V180.1H271.369ZM308.918 190.5V144.42H327.03C329.952 144.42 332.406 145.017 334.39 146.212C336.374 147.407 337.867 148.953 338.87 150.852C339.872 152.729 340.374 154.713 340.374 156.804C340.374 159.343 339.744 161.519 338.486 163.332C337.248 165.145 335.574 166.383 333.462 167.044L333.398 165.476C336.342 166.201 338.603 167.62 340.182 169.732C341.76 171.823 342.55 174.265 342.55 177.06C342.55 179.769 342.006 182.127 340.918 184.132C339.851 186.137 338.283 187.705 336.214 188.836C334.166 189.945 331.68 190.5 328.758 190.5H308.918ZM315.702 184.132H327.734C329.248 184.132 330.603 183.844 331.798 183.268C333.014 182.692 333.963 181.871 334.646 180.804C335.35 179.716 335.702 178.425 335.702 176.932C335.702 175.545 335.392 174.297 334.774 173.188C334.176 172.057 333.302 171.172 332.15 170.532C331.019 169.871 329.686 169.54 328.15 169.54H315.702V184.132ZM315.702 163.236H326.934C328.171 163.236 329.28 162.991 330.262 162.5C331.264 161.988 332.054 161.263 332.63 160.324C333.227 159.364 333.526 158.212 333.526 156.868C333.526 155.076 332.928 153.604 331.734 152.452C330.539 151.3 328.939 150.724 326.934 150.724H315.702V163.236Z" fill="#62C3DC"/>
</svg>
